<svg id="_4_Этаж" data-name="4 Этаж" xmlns="http://www.w3.org/2000/svg" viewBox="0 0 1134.43 708.66"><defs><style>.cls-1{fill:#fff;}</style></defs><title>Монтажная область 5</title><g id="Тектст"><path class="cls-1" d="M376.61,223.34V258.2h4.2l-1.07,4.46h-3.13v14.2h-4.8v-14.2H359.88l-2.53-4.26,15.13-32.6Zm-4,10.33-10,24.53h9.2V241.58Z"/><path class="cls-1" d="M388.61,251.46l3.13-25.86h15.73l-1.68,4.47H395.7l-1.78,14.66a11.06,11.06,0,0,1,2.6-.4q8.28,0,11.21,9.13a25.35,25.35,0,0,1,1.34,8.2q0,9.13-5.4,13.73a10.06,10.06,0,0,1-6.47,2.4,15.48,15.48,0,0,1-4.93-.73,14.42,14.42,0,0,1-3.93-1.74l-.8-.53,2.46-4.06,1.2.53c2.54,1.15,4.4,1.71,5.6,1.66a6.64,6.64,0,0,0,5.94-4.06,16.34,16.34,0,0,0,1.59-7.47q0-6.93-4.26-10.39a8,8,0,0,0-5.2-1.74A11.78,11.78,0,0,0,388.61,251.46Z"/><path class="cls-1" d="M434.26,223.34V258.2h4.2l-1.07,4.46h-3.13v14.2h-4.8v-14.2H417.53L415,258.4l15.13-32.6Zm-4,10.33-10,24.53h9.2V241.58Z"/><path class="cls-1" d="M376.2,409.38v34.86h4.2l-1.06,4.47H376.2V462.9h-4.79V448.71H359.47l-2.53-4.27,15.13-32.59Zm-4,10.33-10,24.53h9.2V427.62Z"/><path class="cls-1" d="M388.2,437.51l3.13-25.86h15.73l-1.67,4.46h-10.1l-1.77,14.66a11.43,11.43,0,0,1,2.6-.39q8.26,0,11.21,9.13a25.3,25.3,0,0,1,1.33,8.2q0,9.12-5.39,13.73a10.19,10.19,0,0,1-6.47,2.4,15.19,15.19,0,0,1-4.93-.74,14.17,14.17,0,0,1-3.93-1.73l-.81-.53,2.47-4.07,1.2.53c2.53,1.16,4.4,1.71,5.6,1.67a6.63,6.63,0,0,0,5.93-4.07,16.14,16.14,0,0,0,1.6-7.46q0-6.93-4.26-10.4a8,8,0,0,0-5.2-1.73A11.75,11.75,0,0,0,388.2,437.51Z"/><path class="cls-1" d="M436.59,418.5a13.29,13.29,0,0,1,.53,4.06,24.86,24.86,0,0,1-2.73,10.65l-12.06,25.36h14.39V463H415l14.36-30.47q2.73-5.79,2.74-10a7.17,7.17,0,0,0-1.7-4.8,5.54,5.54,0,0,0-4.43-2c-2,0-3.83,1.27-5.47,3.8L417,416.05a12.58,12.58,0,0,1,3.54-3.47,9.24,9.24,0,0,1,4.66-1.6Q434.06,410.85,436.59,418.5Z"/><path class="cls-1" d="M218.82,411.84V446.7H223L222,451.16h-3.14v14.2H214v-14.2H202.09l-2.53-4.26,15.13-32.59Zm-4,10.33-10,24.53H214V430.08Z"/><path class="cls-1" d="M230.82,440,234,414.11h15.73L248,418.57h-10.1l-1.78,14.66a11.58,11.58,0,0,1,2.61-.39q8.26,0,11.21,9.13a25.28,25.28,0,0,1,1.33,8.19q0,9.13-5.4,13.74a10.08,10.08,0,0,1-6.46,2.39,14.9,14.9,0,0,1-4.93-.73,14.39,14.39,0,0,1-3.94-1.73l-.8-.53,2.47-4.07,1.2.53c2.53,1.16,4.4,1.71,5.6,1.67a6.63,6.63,0,0,0,5.93-4.07,16.14,16.14,0,0,0,1.6-7.46q0-6.93-4.27-10.4a8,8,0,0,0-5.2-1.73A11.72,11.72,0,0,0,230.82,440Z"/><path class="cls-1" d="M269,414.17v51.32h-4.67V419h-6.67l1.74-4.87Z"/><path class="cls-1" d="M600.1,358.69l-1.07,10h-6l6.07-44.46h8l5.8,44.46h-6.07l-1.13-10Zm4.93-5.8-2.13-20.6-2.14,20.6Z"/><path class="cls-1" d="M628.56,346.16,634,368.69h-5.73l-3.47-16.07-1.86,4.6v11.47h-5.8V335.56H623v12.8l4.4-12.8h5.46Z"/><path class="cls-1" d="M642,368.69V340.76h-5.2v-5.2H653v5.2h-5.47v27.93Z"/><path class="cls-1" d="M672.08,344.42v15.4q0,9.33-7.93,9.33t-7.87-9.33v-15.4q0-9.33,7.87-9.33T672.08,344.42Zm-10-.93v17.26c0,2.05.69,3.07,2.07,3.07s2.13-1,2.13-3.07V343.49c0-2-.69-3.06-2.06-3.06S662.08,341.45,662.08,343.49Z"/><path class="cls-1" d="M678.21,335.56h5.2a34.54,34.54,0,0,1,4.53.2,8.68,8.68,0,0,1,6.47,8.33,10.42,10.42,0,0,1-.8,4,7.39,7.39,0,0,1-2.93,3.33,6,6,0,0,1,3.53,3.07,10.3,10.3,0,0,1,.93,4.27,10.52,10.52,0,0,1-2.13,7q-2.53,2.94-9.06,2.94h-5.74ZM684,349h.79q2.53,0,3.27-1.14a5.7,5.7,0,0,0,.8-3.2,4.13,4.13,0,0,0-.87-2.59c-.53-.76-1.6-1.14-3.2-1.14H684Zm0,14.33h.59c2,0,3.25-.42,3.87-1.27a5.15,5.15,0,0,0,1-3.2,4.87,4.87,0,0,0-1-3.13c-.62-.89-1.91-1.33-3.87-1.33H684Z"/><path class="cls-1" d="M706.21,349h.8a15.91,15.91,0,0,1,5.39.86,7.49,7.49,0,0,1,4.07,3.34,11.51,11.51,0,0,1,.93,5.6,10.52,10.52,0,0,1-2.13,7q-2.53,2.94-9.06,2.94h-5.74V335.56h5.74Zm0,14.33h.6c2,0,3.24-.42,3.86-1.27a5.15,5.15,0,0,0,1-3.2,4.87,4.87,0,0,0-1-3.13c-.62-.89-1.91-1.33-3.86-1.33h-.6Zm12.93-27.73v33.13h5.8V335.56Z"/><path class="cls-1" d="M745.06,368.69h-5.33l-.46-2.87q-3.13,3.33-5.4,3.33a3.85,3.85,0,0,1-3.94-2.73,15.13,15.13,0,0,1-.53-4.87v-26h5.8v25.79c0,1.65.49,2.47,1.47,2.47a4.63,4.63,0,0,0,2.6-1.33V335.56h5.79ZM731.2,330.56l3.2-2.2a5.17,5.17,0,0,0,2.93,1.13,5.11,5.11,0,0,0,2.87-1.13l3.2,2.2a6.34,6.34,0,0,1-6.07,3.33Q733,333.89,731.2,330.56Z"/><path class="cls-1" d="M764.92,357.49c0,.49-.06,1-.06,1.6,0,2.75.77,4.13,2.33,4.13a1.76,1.76,0,0,0,1.67-1,9.71,9.71,0,0,0,.33-3.06q0-4.55-3.87-4.54h-.8v-5.33c1.07-.31,2.16-.64,3.27-1a4.71,4.71,0,0,0,1.4-3.46v-1.74c0-1.51-.62-2.26-1.87-2.26s-1.89.69-2.06,2.06c0,.54-.07,1.42-.07,2.67h-5.46q0-10.2,7.39-10.2a6.73,6.73,0,0,1,5.67,2.6,9.5,9.5,0,0,1,1.73,5.8,18.94,18.94,0,0,1-.46,4.8,7,7,0,0,1-2.54,3.13,4.63,4.63,0,0,1,2.94,2.8,16.65,16.65,0,0,1,.53,4.67,11.1,11.1,0,0,1-1.87,6.86c-1.38,1.78-3.46,2.67-6.26,2.67q-7.74,0-7.73-8.67c0-.89,0-1.73.06-2.53Z"/><path class="cls-1" d="M794.65,368.69h-6a14.24,14.24,0,0,1-.4-2.67q-2.07,3.14-4.93,3.13-5.07,0-5.07-8.4a12,12,0,0,1,2.8-8.26,37.49,37.49,0,0,1,6.07-4.6c.09,0,.47-.29,1.13-.73v-3.73a4.46,4.46,0,0,0-.43-2.54,1.8,1.8,0,0,0-1.37-.46,1.76,1.76,0,0,0-1.73.93,12.51,12.51,0,0,0-.67,3.93h-5.6a17.34,17.34,0,0,1,1.54-6.66c1.29-2.36,3.46-3.54,6.53-3.54q7.53,0,7.53,7.94v20.32A18.39,18.39,0,0,0,794.65,368.69Zm-6.4-6.67V351.69a10.73,10.73,0,0,0-4.2,8.6c0,2.31.6,3.46,1.8,3.46C786.7,363.75,787.5,363.18,788.25,362Z"/><path class="cls-1" d="M815.38,335.56v33.13h-5.8V341.36h-2.47v16.4c0,2.48,0,4.06-.13,4.73a7.65,7.65,0,0,1-1.66,4.33,6.31,6.31,0,0,1-4.94,1.87,10.13,10.13,0,0,1-2.73-.47v-5.53a7.17,7.17,0,0,0,1.13.2,2.2,2.2,0,0,0,2.34-1.8,16.83,16.83,0,0,0,.2-3.33v-22.2Z"/><path class="cls-1" d="M790.09,466l4.63,19.69H790.4l-3.07-14-1.78,4.86v9.17H781.4V456h4.15v11.18L789.6,456h4.23Z"/><path class="cls-1" d="M807.73,469.48v10.29c0,4.16-1.77,6.23-5.3,6.23s-5.26-2.07-5.26-6.23V469.48q0-6.24,5.26-6.24T807.73,469.48Zm-6.68-.62v11.53c0,1.37.46,2.05,1.38,2.05s1.42-.68,1.42-2.05V468.86c0-1.37-.46-2.05-1.38-2.05S801.05,467.49,801.05,468.86Z"/><path class="cls-1" d="M816,463.55,819,477.5l2.94-13.95h5V485.6h-3.56V472.28l-3.47,13.32h-1.79l-3.47-13.32V485.6h-3.48V463.55Z"/><path class="cls-1" d="M837.62,476.65h-3.16v9h-3.92V463.55h3.92V473h3.16v-9.45h3.92v22.14h-3.92Z"/><path class="cls-1" d="M856.06,485.69h-4a9.36,9.36,0,0,1-.27-1.78,3.93,3.93,0,0,1-3.29,2.09q-3.39,0-3.39-5.61a8,8,0,0,1,1.87-5.52,25.91,25.91,0,0,1,4.06-3.08c.06,0,.31-.19.75-.48v-2.5a2.9,2.9,0,0,0-.29-1.69,1.43,1.43,0,0,0-2.07.31,8.28,8.28,0,0,0-.44,2.63h-3.74a11.44,11.44,0,0,1,1-4.46,4.58,4.58,0,0,1,4.37-2.36q5,0,5,5.3v13.59A12.13,12.13,0,0,0,856.06,485.69Zm-4.28-4.45v-6.91a7.17,7.17,0,0,0-2.8,5.75c0,1.54.4,2.32,1.2,2.32C850.74,482.4,851.28,482,851.78,481.24Z"/><path class="cls-1" d="M862,485.69V467h-3.48v-3.48h10.83V467h-3.65v18.66Z"/><path class="cls-1" d="M882.3,485.69h-4a9.36,9.36,0,0,1-.27-1.78,3.93,3.93,0,0,1-3.3,2.09q-3.37,0-3.38-5.61a8,8,0,0,1,1.87-5.52,25.17,25.17,0,0,1,4-3.08c.06,0,.31-.19.76-.48v-2.5a3,3,0,0,0-.29-1.69,1.18,1.18,0,0,0-.91-.31,1.16,1.16,0,0,0-1.16.62,8.2,8.2,0,0,0-.45,2.63h-3.74a11.59,11.59,0,0,1,1-4.46,4.57,4.57,0,0,1,4.36-2.36q5,0,5,5.3v13.59A12.13,12.13,0,0,0,882.3,485.69ZM878,481.24v-6.91a7.18,7.18,0,0,0-2.81,5.75c0,1.54.4,2.32,1.21,2.32C877,482.4,877.52,482,878,481.24Z"/><path class="cls-1" d="M790.09,209l4.63,19.69H790.4l-3.07-14-1.78,4.85v9.18H781.4V199h4.15v11.18L789.6,199h4.23Z"/><path class="cls-1" d="M807.73,212.51V222.8q0,6.22-5.3,6.23t-5.26-6.23V212.51q0-6.24,5.26-6.24T807.73,212.51Zm-6.68-.63v11.54c0,1.37.46,2.05,1.38,2.05s1.42-.68,1.42-2.05V211.88c0-1.36-.46-2-1.38-2S801.05,210.52,801.05,211.88Z"/><path class="cls-1" d="M816,206.58,819,220.52l2.94-13.94h5v22h-3.56V215.31l-3.47,13.32h-1.79l-3.47-13.32v13.32h-3.48v-22Z"/><path class="cls-1" d="M837.62,219.68h-3.16v9h-3.92V206.58h3.92V216h3.16v-9.45h3.92v22.14h-3.92Z"/><path class="cls-1" d="M856.06,228.72h-4a9.36,9.36,0,0,1-.27-1.78,4,4,0,0,1-3.29,2.09q-3.39,0-3.39-5.61A8,8,0,0,1,847,217.9a25.28,25.28,0,0,1,4.06-3.08c.06,0,.31-.19.75-.49v-2.49a2.88,2.88,0,0,0-.29-1.69,1.17,1.17,0,0,0-.91-.32,1.18,1.18,0,0,0-1.16.63,8.22,8.22,0,0,0-.44,2.63h-3.74a11.44,11.44,0,0,1,1-4.46,4.58,4.58,0,0,1,4.37-2.36q5,0,5,5.3v13.59A12.13,12.13,0,0,0,856.06,228.72Zm-4.28-4.45v-6.91a7.17,7.17,0,0,0-2.8,5.75q0,2.31,1.2,2.31A2,2,0,0,0,851.78,224.27Z"/><path class="cls-1" d="M862,228.72V210.06h-3.48v-3.48h10.83v3.48h-3.65v18.66Z"/><path class="cls-1" d="M882.3,228.72h-4a9.36,9.36,0,0,1-.27-1.78,4,4,0,0,1-3.3,2.09q-3.37,0-3.38-5.61a7.94,7.94,0,0,1,1.87-5.52,24.58,24.58,0,0,1,4-3.08l.76-.49v-2.49a3,3,0,0,0-.29-1.69,1.41,1.41,0,0,0-2.07.31,8.14,8.14,0,0,0-.45,2.63h-3.74a11.59,11.59,0,0,1,1-4.46,4.57,4.57,0,0,1,4.36-2.36q5,0,5,5.3v13.59A12.13,12.13,0,0,0,882.3,228.72ZM878,224.27v-6.91a7.18,7.18,0,0,0-2.81,5.75c0,1.54.4,2.31,1.21,2.31A2,2,0,0,0,878,224.27Z"/><path class="cls-1" d="M121.45,416.74h2.45a3.08,3.08,0,0,1,2.23.8,2.92,2.92,0,0,1,.83,2.18v.6h-1.84v-.6a1.07,1.07,0,0,0-1.22-1.19h-2.45a1.07,1.07,0,0,0-1.23,1.19v35.75a1.07,1.07,0,0,0,1.23,1.2h2.45a1.07,1.07,0,0,0,1.22-1.2v-.59H127v.59a2.91,2.91,0,0,1-.83,2.18,3,3,0,0,1-2.23.8h-2.45a3.06,3.06,0,0,1-2.24-.8,2.91,2.91,0,0,1-.83-2.18V419.72a2.92,2.92,0,0,1,.83-2.18A3.1,3.1,0,0,1,121.45,416.74Z"/><path class="cls-1" d="M129.35,460.84l17.09-43.21h4.16l-17.15,43.21Z"/><path class="cls-1" d="M154.7,456.67h5.51a1.07,1.07,0,0,0,1.23-1.2v-3h-3.68a3,3,0,0,1-2.23-.81,2.9,2.9,0,0,1-.83-2.17V416.74h1.84v32.78a1.07,1.07,0,0,0,1.22,1.19h3.68v-34h1.84v38.73a2.91,2.91,0,0,1-.83,2.18,3.06,3.06,0,0,1-2.24.8H154.7Z"/><path class="cls-1" d="M138.1,233h2.45a3,3,0,0,1,2.23.81,2.89,2.89,0,0,1,.83,2.17v.6h-1.84V236a1.07,1.07,0,0,0-1.22-1.19H138.1a1.07,1.07,0,0,0-1.23,1.19v35.76A1.07,1.07,0,0,0,138.1,273h2.45a1.07,1.07,0,0,0,1.22-1.19v-.6h1.84v.6a2.9,2.9,0,0,1-.83,2.17,3,3,0,0,1-2.23.81H138.1a3.06,3.06,0,0,1-2.24-.81,2.89,2.89,0,0,1-.82-2.17V236a2.88,2.88,0,0,1,.82-2.17A3.06,3.06,0,0,1,138.1,233Z"/><path class="cls-1" d="M146,277.12l17.09-43.21h4.16L150.1,277.12Z"/><path class="cls-1" d="M171.35,273h5.52a1.07,1.07,0,0,0,1.22-1.19v-3h-3.67a3.06,3.06,0,0,1-2.24-.81,2.89,2.89,0,0,1-.83-2.17V233h1.84V265.8a1.07,1.07,0,0,0,1.23,1.19h3.67V233h1.84v38.74a2.9,2.9,0,0,1-.83,2.17,3.06,3.06,0,0,1-2.23.81h-5.52Z"/></g></svg>