<svg id="_3_Этаж" data-name="3 Этаж" xmlns="http://www.w3.org/2000/svg" viewBox="0 0 1134.43 708.66"><defs><style>.cls-1{fill:#fff;}</style></defs><title>Монтажная область 4</title><g id="_3_Этаж_Текст" data-name="3 Этаж Текст"><path class="cls-1" d="M346.79,254.53l1-2.7c4,0,6.35-.87,7.08-2.63a8.76,8.76,0,0,0,.61-3.47q0-5.92-3.94-5.92a3.29,3.29,0,0,0-2.33.74,7.53,7.53,0,0,0-1.51,2.4l-2.74-2.54a7.67,7.67,0,0,1,2.84-3,8.5,8.5,0,0,1,3.74-.73c3.44,0,5.69,1.51,6.75,4.51a13.12,13.12,0,0,1,.73,4.48,7.54,7.54,0,0,1-4.22,7.6,7.3,7.3,0,0,1,3.91,4.38,18.18,18.18,0,0,1,.8,6,16.94,16.94,0,0,1-1.69,8,6.18,6.18,0,0,1-5.9,3.43,8.13,8.13,0,0,1-7.24-3.85l2.83-2.55a4.24,4.24,0,0,0,4.31,2.88,3.18,3.18,0,0,0,2.51-1.22,7,7,0,0,0,1.43-2.82,13.65,13.65,0,0,0,.45-3.55,22.5,22.5,0,0,0-.47-4.57,6.2,6.2,0,0,0-2.13-3.36,7.63,7.63,0,0,0-5.33-1.47Z"/><path class="cls-1" d="M365.54,255.86l2.25-18.61h11.32l-1.19,3.17h-7.23L369.36,251a8.51,8.51,0,0,1,1.87-.3q5.94,0,8.09,6.52a19,19,0,0,1,.94,6q0,6.63-3.89,9.88a7,7,0,0,1-4.64,1.76,12,12,0,0,1-3.52-.54,10.29,10.29,0,0,1-2.88-1.25l-.56-.4,1.78-2.94.84.4a10.12,10.12,0,0,0,4,1.22,4.45,4.45,0,0,0,4.08-2.61,11.66,11.66,0,0,0,1.36-5.7q0-5-3.07-7.51a5.87,5.87,0,0,0-3.75-1.25,6.23,6.23,0,0,0-2.24.33A14.48,14.48,0,0,0,365.54,255.86Z"/><path class="cls-1" d="M397.72,237.48l-7.18,16.41a8.26,8.26,0,0,1,4.22-1.28,4.56,4.56,0,0,1,3.58,1.73,11,11,0,0,1,2.19,4.29,19.71,19.71,0,0,1,.75,5.3q0,6.69-3,9.49A6.14,6.14,0,0,1,393.9,275q-5.7,0-7.62-5.61a15.83,15.83,0,0,1-.91-5.2l.09-.68a30.09,30.09,0,0,1,1.41-8.67,68.55,68.55,0,0,1,3.09-8.37l4.52-10.12Zm-3.82,34.13a3.26,3.26,0,0,0,3.16-2.48,16,16,0,0,0,.87-5.67q0-7.69-4.31-7.69a3.58,3.58,0,0,0-3.5,2.32,13.5,13.5,0,0,0-1,5.46q0,8.16,4.43,8.16Z"/><path class="cls-1" d="M559.92,254.73l1-2.7q6,0,7.08-2.63a8.94,8.94,0,0,0,.61-3.47c0-4-1.32-5.92-3.94-5.92a3.29,3.29,0,0,0-2.33.74,7.53,7.53,0,0,0-1.52,2.4L558,240.61a7.62,7.62,0,0,1,2.85-3,8.47,8.47,0,0,1,3.74-.73c3.44,0,5.69,1.51,6.75,4.51a13.36,13.36,0,0,1,.72,4.48,9.27,9.27,0,0,1-.91,4.48,9.15,9.15,0,0,1-3.3,3.11,7.37,7.37,0,0,1,3.91,4.39,18.45,18.45,0,0,1,.8,6,17.06,17.06,0,0,1-1.69,8,6.17,6.17,0,0,1-5.91,3.42,8.13,8.13,0,0,1-7.24-3.84l2.84-2.55a4.23,4.23,0,0,0,4.31,2.88,3.19,3.19,0,0,0,2.51-1.22,7.23,7.23,0,0,0,1.43-2.82,14.09,14.09,0,0,0,.44-3.55,21.81,21.81,0,0,0-.47-4.57,6.09,6.09,0,0,0-2.13-3.36,7.62,7.62,0,0,0-5.32-1.47Z"/><path class="cls-1" d="M578.66,256.06l2.25-18.61h11.32L591,240.62h-7.23l-1.33,10.61a8.58,8.58,0,0,1,1.88-.3q5.92,0,8.09,6.52a19.23,19.23,0,0,1,.93,6q0,6.63-3.89,9.88a7,7,0,0,1-4.64,1.76,11.88,11.88,0,0,1-3.51-.54,10.52,10.52,0,0,1-2.89-1.25l-.56-.4,1.78-2.94.85.4a10.08,10.08,0,0,0,4,1.22,4.47,4.47,0,0,0,4.08-2.61,11.77,11.77,0,0,0,1.35-5.7q0-5-3.07-7.51a5.83,5.83,0,0,0-3.75-1.25,6.17,6.17,0,0,0-2.23.33A14.49,14.49,0,0,0,578.66,256.06Z"/><path class="cls-1" d="M599.45,256.06l2.25-18.61H613l-1.19,3.17H604.6l-1.33,10.61a8.49,8.49,0,0,1,1.88-.3q5.93,0,8.08,6.52a19,19,0,0,1,.94,6q0,6.63-3.89,9.88a7,7,0,0,1-4.64,1.76,12,12,0,0,1-3.52-.54,10.43,10.43,0,0,1-2.88-1.25l-.56-.4,1.78-2.94.84.4a10.12,10.12,0,0,0,4,1.22,4.45,4.45,0,0,0,4.08-2.61,11.66,11.66,0,0,0,1.36-5.7q0-5-3.07-7.51a5.87,5.87,0,0,0-3.75-1.25,6.23,6.23,0,0,0-2.24.33A14.48,14.48,0,0,0,599.45,256.06Z"/><path class="cls-1" d="M770.77,254.47l1-2.7c4,0,6.35-.87,7.08-2.63a8.76,8.76,0,0,0,.61-3.47q0-5.92-3.94-5.92a3.29,3.29,0,0,0-2.33.74,7.53,7.53,0,0,0-1.51,2.4l-2.74-2.54a7.56,7.56,0,0,1,2.84-3,8.36,8.36,0,0,1,3.74-.73q5.16,0,6.75,4.5a13.12,13.12,0,0,1,.73,4.48,7.54,7.54,0,0,1-4.22,7.6,7.3,7.3,0,0,1,3.91,4.38,18.22,18.22,0,0,1,.8,6,16.94,16.94,0,0,1-1.69,8,6.16,6.16,0,0,1-5.9,3.43,8.11,8.11,0,0,1-7.24-3.85l2.83-2.55a4.24,4.24,0,0,0,4.31,2.88,3.15,3.15,0,0,0,2.51-1.22,7,7,0,0,0,1.43-2.82,13.65,13.65,0,0,0,.45-3.55,22.5,22.5,0,0,0-.47-4.57,6.18,6.18,0,0,0-2.13-3.35,7.58,7.58,0,0,0-5.32-1.48Z"/><path class="cls-1" d="M789.52,255.81l2.25-18.61h11.32l-1.19,3.16h-7.23L793.34,251a8.07,8.07,0,0,1,1.87-.31q5.94,0,8.09,6.52a19,19,0,0,1,.94,6q0,6.61-3.89,9.87a7,7,0,0,1-4.64,1.76,12,12,0,0,1-3.52-.54,10.29,10.29,0,0,1-2.88-1.25l-.56-.4,1.78-2.94.84.4a10.12,10.12,0,0,0,4,1.22,4.45,4.45,0,0,0,4.08-2.61,11.66,11.66,0,0,0,1.36-5.7q0-5-3.07-7.51a5.87,5.87,0,0,0-3.75-1.25,6.23,6.23,0,0,0-2.24.33A14.72,14.72,0,0,0,789.52,255.81Z"/><path class="cls-1" d="M823.08,235.56V260.7h3l-.75,3.17h-2.27v10.24h-3.44V263.87H811l-1.82-3.07,10.89-23.46ZM820.2,243,813,260.7h6.64v-12Z"/><path class="cls-1" d="M763.36,448.35l1-2.7c4,0,6.35-.87,7.08-2.63a8.76,8.76,0,0,0,.61-3.47q0-5.93-3.94-5.92a3.31,3.31,0,0,0-2.33.74,7.53,7.53,0,0,0-1.51,2.4l-2.74-2.54a7.51,7.51,0,0,1,2.85-3,8.29,8.29,0,0,1,3.73-.73q5.16,0,6.75,4.5a13.12,13.12,0,0,1,.73,4.48,7.54,7.54,0,0,1-4.22,7.6,7.34,7.34,0,0,1,3.92,4.38,18.53,18.53,0,0,1,.79,6,17.06,17.06,0,0,1-1.68,8,6.19,6.19,0,0,1-5.91,3.43,8.11,8.11,0,0,1-7.24-3.85l2.83-2.55a4.25,4.25,0,0,0,4.32,2.88,3.16,3.16,0,0,0,2.5-1.22,6.85,6.85,0,0,0,1.43-2.82,13.65,13.65,0,0,0,.45-3.55,22.5,22.5,0,0,0-.47-4.57,6.18,6.18,0,0,0-2.13-3.35,7.58,7.58,0,0,0-5.32-1.48Z"/><path class="cls-1" d="M782.11,449.68l2.25-18.6h11.32l-1.19,3.16h-7.23l-1.33,10.62a8.07,8.07,0,0,1,1.87-.31q5.94,0,8.09,6.52a19,19,0,0,1,.94,6q0,6.62-3.89,9.87a7,7,0,0,1-4.64,1.76,12,12,0,0,1-3.52-.54,10.29,10.29,0,0,1-2.88-1.25l-.56-.4,1.78-2.94.84.4a10.12,10.12,0,0,0,4,1.22,4.45,4.45,0,0,0,4.08-2.61,11.66,11.66,0,0,0,1.36-5.7q0-5-3.07-7.51a5.87,5.87,0,0,0-3.75-1.25,6.23,6.23,0,0,0-2.24.33A15.39,15.39,0,0,0,782.11,449.68Z"/><path class="cls-1" d="M804.56,448.35l1-2.7c4,0,6.35-.87,7.08-2.63a8.76,8.76,0,0,0,.61-3.47q0-5.93-3.94-5.92a3.29,3.29,0,0,0-2.33.74,7.53,7.53,0,0,0-1.51,2.4l-2.74-2.54a7.56,7.56,0,0,1,2.84-3,8.36,8.36,0,0,1,3.74-.73q5.16,0,6.75,4.5a13.12,13.12,0,0,1,.73,4.48,7.54,7.54,0,0,1-4.22,7.6,7.3,7.3,0,0,1,3.91,4.38,18.22,18.22,0,0,1,.8,6,16.94,16.94,0,0,1-1.69,8,6.16,6.16,0,0,1-5.9,3.43,8.11,8.11,0,0,1-7.24-3.85l2.83-2.55a4.24,4.24,0,0,0,4.31,2.88,3.18,3.18,0,0,0,2.51-1.22,7,7,0,0,0,1.43-2.82,13.65,13.65,0,0,0,.45-3.55,22.5,22.5,0,0,0-.47-4.57,6.18,6.18,0,0,0-2.13-3.35,7.58,7.58,0,0,0-5.32-1.48Z"/><path class="cls-1" d="M560.71,448l1-2.7c4,0,6.34-.87,7.07-2.63a8.76,8.76,0,0,0,.61-3.47q0-5.93-3.93-5.92a3.32,3.32,0,0,0-2.34.74,7.71,7.71,0,0,0-1.51,2.4l-2.74-2.54a7.62,7.62,0,0,1,2.85-3,8.45,8.45,0,0,1,3.74-.72q5.15,0,6.75,4.5a13.36,13.36,0,0,1,.72,4.48,7.54,7.54,0,0,1-4.22,7.6,7.34,7.34,0,0,1,3.92,4.38,18.53,18.53,0,0,1,.79,6,17.06,17.06,0,0,1-1.68,8,6.19,6.19,0,0,1-5.91,3.43,8.13,8.13,0,0,1-7.24-3.85l2.83-2.55a4.25,4.25,0,0,0,4.32,2.88,3.16,3.16,0,0,0,2.5-1.22,6.91,6.91,0,0,0,1.43-2.82,13.65,13.65,0,0,0,.45-3.55,22.5,22.5,0,0,0-.47-4.57,6.14,6.14,0,0,0-2.13-3.36,7.62,7.62,0,0,0-5.32-1.47Z"/><path class="cls-1" d="M579.46,449.34l2.25-18.61H593l-1.19,3.17h-7.23l-1.33,10.62a8.06,8.06,0,0,1,1.88-.31q5.93,0,8.08,6.52a19,19,0,0,1,.94,6q0,6.61-3.89,9.87a7,7,0,0,1-4.64,1.76,12,12,0,0,1-3.52-.54,10.57,10.57,0,0,1-2.88-1.25l-.56-.4,1.78-2.94.84.4a10.16,10.16,0,0,0,4,1.22,4.45,4.45,0,0,0,4.07-2.61,11.66,11.66,0,0,0,1.36-5.7q0-5-3.07-7.51a5.83,5.83,0,0,0-3.75-1.25,6.23,6.23,0,0,0-2.24.33A15,15,0,0,0,579.46,449.34Z"/><path class="cls-1" d="M615,435.68a9.67,9.67,0,0,1,.39,2.93,17.9,17.9,0,0,1-2,7.66l-8.69,18.31h10.36v3.16h-15.6l10.29-21.93a17.75,17.75,0,0,0,2-7.2,5.11,5.11,0,0,0-1.17-3.42,4,4,0,0,0-3.24-1.48q-2.16,0-3.94,2.72l-2.5-2.53a8.78,8.78,0,0,1,2.78-2.63,6.54,6.54,0,0,1,3.12-1Q613.23,430.24,615,435.68Z"/><path class="cls-1" d="M259.3,448.2l1-2.7q6,0,7.08-2.62a9,9,0,0,0,.6-3.48q0-5.92-3.93-5.92a3.25,3.25,0,0,0-2.33.75,7.35,7.35,0,0,0-1.52,2.39l-2.74-2.54a7.51,7.51,0,0,1,2.85-3,8.33,8.33,0,0,1,3.74-.73q5.14,0,6.75,4.5a13.36,13.36,0,0,1,.72,4.48,7.55,7.55,0,0,1-4.21,7.6,7.39,7.39,0,0,1,3.91,4.38,18.49,18.49,0,0,1,.8,6,17.06,17.06,0,0,1-1.69,8,6.17,6.17,0,0,1-5.91,3.43,8.12,8.12,0,0,1-7.24-3.85l2.84-2.55a4.23,4.23,0,0,0,4.31,2.88A3.16,3.16,0,0,0,266.8,464a7.09,7.09,0,0,0,1.43-2.82,14.09,14.09,0,0,0,.44-3.55,21.81,21.81,0,0,0-.47-4.57,6.06,6.06,0,0,0-2.13-3.35,7.58,7.58,0,0,0-5.32-1.48Z"/><path class="cls-1" d="M278,449.54l2.25-18.61h11.32l-1.19,3.16h-7.23l-1.33,10.62a8.14,8.14,0,0,1,1.88-.31q5.92,0,8.09,6.53a19.18,19.18,0,0,1,.93,6q0,6.61-3.89,9.87a7,7,0,0,1-4.64,1.76,11.88,11.88,0,0,1-3.51-.54,10.52,10.52,0,0,1-2.89-1.25l-.56-.4,1.78-2.94.85.41a10.2,10.2,0,0,0,4,1.21,4.47,4.47,0,0,0,4.08-2.61,11.77,11.77,0,0,0,1.35-5.7q0-5-3.07-7.51a5.82,5.82,0,0,0-3.75-1.24,6.43,6.43,0,0,0-2.23.32A14.72,14.72,0,0,0,278,449.54Z"/><path class="cls-1" d="M306.21,431v37h-3.35V434.47h-4.8l1.24-3.5Z"/><path class="cls-1" d="M914.59,461.86,916,466.1l-.57.59a5.84,5.84,0,0,1-4.43,1.6c-3.46,0-5.82-2.08-7-6.25a29.14,29.14,0,0,1-.73-2.83,15.36,15.36,0,0,1-.33-3.06c0-.65,0-1.46-.07-2.41-.11-2.24-.16-3.73-.16-4.46,0-1,0-2,.05-2.89l.14-4.17a22.4,22.4,0,0,1,1-5.82,10.05,10.05,0,0,1,2.54-4.57,6.22,6.22,0,0,1,4.6-1.77,6.12,6.12,0,0,1,4.53,1.69l.47.47-1.43,4.14-.4-.75a3.31,3.31,0,0,0-3.17-1.78c-2.36,0-3.79,1.67-4.31,5a36.26,36.26,0,0,0-.4,5.42c0,.56,0,1.4.05,2.52s0,2,0,2.52c0,1.14,0,2.19,0,3.14l-.07,2.3a21.53,21.53,0,0,0,1,7.27,3.64,3.64,0,0,0,3.68,2.63,3.33,3.33,0,0,0,3.17-2Z"/><path class="cls-1" d="M921.26,469.46l13.13-40.71h3l-13,40.71Z"/><path class="cls-1" d="M961.2,430.81l-14,38.18-3.35-1.62L949,453.29l-7-22.48,3.56-1.19,5.6,17.91,6.41-17.91Z"/><path class="cls-1" d="M132.26,269.09l1.43,4.23-.56.59a5.87,5.87,0,0,1-4.43,1.6q-5.2,0-7.06-6.24a29.26,29.26,0,0,1-.73-2.84,16.07,16.07,0,0,1-.32-3.05c0-.66,0-1.47-.07-2.42-.11-2.24-.17-3.73-.17-4.46,0-1,0-2,.05-2.89l.14-4.17a23,23,0,0,1,1-5.82,10.11,10.11,0,0,1,2.54-4.57,6.24,6.24,0,0,1,4.61-1.77,6.13,6.13,0,0,1,4.52,1.69l.47.47-1.43,4.15-.4-.75a3.29,3.29,0,0,0-3.16-1.79q-3.54,0-4.32,5a36.26,36.26,0,0,0-.4,5.42c0,.56,0,1.4,0,2.52s0,2,0,2.52c0,1.14,0,2.19,0,3.14L124,262a21.22,21.22,0,0,0,1,7.27,3.62,3.62,0,0,0,3.68,2.63,3.33,3.33,0,0,0,3.16-2Z"/><path class="cls-1" d="M138.93,276.68,152.06,236h3l-13,40.71Z"/><path class="cls-1" d="M178.87,238l-14,38.18-3.35-1.62,5.13-14.08-7-22.48,3.55-1.19,5.61,17.91,6.4-17.91Z"/></g></svg>