<svg id="Слой_10" data-name="Слой 10" xmlns="http://www.w3.org/2000/svg" viewBox="0 0 1134.43 708.66"><defs><style>.cls-1{fill:#fff;}</style></defs><title>Монтажная область 3</title><g id="Текст"><path class="cls-1" d="M863.4,299.34h6.2c.09,1.78.13,3.33.13,4.66q0,11.81-9,11.8-8.75,0-8.74-10.66V280.68Q852,270,860.74,270q9,0,9,11.6s0,1.13-.13,3.53h-6.2c.09-1,.13-2,.13-3.06a23.56,23.56,0,0,0-.2-4,2.52,2.52,0,0,0-2.59-2.27,2.12,2.12,0,0,0-2.27,1.67,11.59,11.59,0,0,0-.27,3.2v24.46a11.64,11.64,0,0,0,.27,3.2,2.11,2.11,0,0,0,2.27,1.66,2.55,2.55,0,0,0,2.59-2.2,22.35,22.35,0,0,0,.2-3.86C863.53,303.8,863.49,302.27,863.4,299.34Z"/><path class="cls-1" d="M879,315.13V287.21h-5.2V282H890v5.2h-5.46v27.92Z"/><path class="cls-1" d="M909.06,290.87v15.4q0,9.33-7.94,9.33t-7.86-9.33v-15.4q0-9.33,7.86-9.33T909.06,290.87Zm-10-.93V307.2c0,2.05.69,3.07,2.06,3.07s2.14-1,2.14-3.07V289.94c0-2-.69-3.07-2.07-3.07S899.06,287.9,899.06,289.94Z"/><path class="cls-1" d="M930.19,282v33.12h-5.8V287.81h-2.47V304.2c0,2.49,0,4.07-.13,4.74a7.66,7.66,0,0,1-1.67,4.33,6.29,6.29,0,0,1-4.93,1.86,10,10,0,0,1-2.73-.46v-5.53a6.81,6.81,0,0,0,1.13.2,2.19,2.19,0,0,0,2.33-1.8,16.1,16.1,0,0,0,.2-3.34V282Z"/><path class="cls-1" d="M950.51,290.87v15.4q0,9.33-7.93,9.33t-7.86-9.33v-15.4q0-9.33,7.86-9.33T950.51,290.87Zm-10-.93V307.2c0,2.05.68,3.07,2.06,3.07s2.13-1,2.13-3.07V289.94c0-2-.68-3.07-2.06-3.07S940.52,287.9,940.52,289.94Z"/><path class="cls-1" d="M956.65,282h5.19a34.83,34.83,0,0,1,4.54.2,8.66,8.66,0,0,1,6.46,8.33,10.42,10.42,0,0,1-.8,4,7.39,7.39,0,0,1-2.93,3.33,6,6,0,0,1,3.53,3.07,10.29,10.29,0,0,1,.93,4.26,10.55,10.55,0,0,1-2.13,7c-1.69,2-4.71,2.93-9.06,2.93h-5.73Zm5.73,13.4h.8c1.69,0,2.77-.38,3.26-1.14a5.62,5.62,0,0,0,.8-3.2,4.23,4.23,0,0,0-.86-2.6c-.54-.75-1.6-1.13-3.2-1.13h-.8Zm0,14.33h.6c1.95,0,3.24-.43,3.86-1.27a5.17,5.17,0,0,0,1-3.2,4.87,4.87,0,0,0-1-3.13c-.62-.89-1.91-1.34-3.86-1.34h-.6Z"/><path class="cls-1" d="M993.57,315.13h-6a14,14,0,0,1-.4-2.66q-2.07,3.13-4.93,3.13-5.07,0-5.07-8.4a12,12,0,0,1,2.8-8.26,37.49,37.49,0,0,1,6.07-4.6c.09,0,.47-.29,1.13-.73v-3.74a4.44,4.44,0,0,0-.43-2.53,1.8,1.8,0,0,0-1.37-.47,1.76,1.76,0,0,0-1.73.94,12.51,12.51,0,0,0-.67,3.93h-5.6a17.34,17.34,0,0,1,1.54-6.66c1.29-2.36,3.46-3.54,6.53-3.54q7.53,0,7.53,7.93V309.8A18.27,18.27,0,0,0,993.57,315.13Zm-6.4-6.66V298.14a10.73,10.73,0,0,0-4.2,8.6c0,2.31.6,3.46,1.8,3.46C985.62,310.2,986.42,309.63,987.17,308.47Z"/><path class="cls-1" d="M1016.57,315.13h-5.87V301.87a11.35,11.35,0,0,1-2.07-.27l-3.39,13.53H998.9L1003,299.6a13.37,13.37,0,0,1-2.53-4.79,11.37,11.37,0,0,1-.46-2.8,11.65,11.65,0,0,1,2.26-7.34q2.21-2.87,8.53-2.86h5.74Zm-5.87-27.86h-.8q-2.46,0-3.33,1.14a4.9,4.9,0,0,0-.8,2.93,7.36,7.36,0,0,0,.4,2.6c.4,1.33,1.64,2,3.73,2h.8Z"/><path class="cls-1" d="M539.07,335l2.35,10h-2.19l-1.55-7.11-.91,2.46V345h-2.1V329.92h2.1v5.66l2.06-5.66H541Z"/><path class="cls-1" d="M548,336.76V342c0,2.11-.9,3.16-2.69,3.16s-2.66-1.05-2.66-3.16v-5.21c0-2.11.89-3.16,2.66-3.16S548,334.65,548,336.76Zm-3.38-.32v5.85c0,.69.23,1,.69,1s.73-.34.73-1v-5.85c0-.69-.24-1-.7-1S544.63,335.75,544.63,336.44Z"/><path class="cls-1" d="M552.21,333.76l1.49,7.06,1.49-7.06h2.52v11.17h-1.8v-6.75l-1.76,6.75h-.91l-1.75-6.75v6.75h-1.77V333.76Z"/><path class="cls-1" d="M563.15,340.39h-1.6V345h-2V333.76h2v4.78h1.6v-4.78h2V345h-2Z"/><path class="cls-1" d="M572.49,345h-2a5.72,5.72,0,0,1-.14-.9,2,2,0,0,1-1.67,1.06c-1.14,0-1.71-.95-1.71-2.84a4.06,4.06,0,0,1,.95-2.8,12.72,12.72,0,0,1,2.05-1.56l.38-.25v-1.26a1.51,1.51,0,0,0-.14-.86.62.62,0,0,0-.46-.16.59.59,0,0,0-.59.32,4.18,4.18,0,0,0-.23,1.33H567a5.78,5.78,0,0,1,.52-2.25,2.3,2.3,0,0,1,2.21-1.2c1.7,0,2.55.9,2.55,2.69v6.88A6.37,6.37,0,0,0,572.49,345Zm-2.17-2.26v-3.49a3.64,3.64,0,0,0-1.42,2.91c0,.78.21,1.17.61,1.17S570.07,343.11,570.32,342.71Z"/><path class="cls-1" d="M575.51,345v-9.45h-1.76v-1.76h5.49v1.76h-1.85V345Z"/><path class="cls-1" d="M585.78,345h-2a4.74,4.74,0,0,1-.14-.9,2,2,0,0,1-1.66,1.06c-1.15,0-1.72-.95-1.72-2.84a4.06,4.06,0,0,1,.95-2.8,12.72,12.72,0,0,1,2.05-1.56l.38-.25v-1.26a1.51,1.51,0,0,0-.14-.86.62.62,0,0,0-.46-.16.59.59,0,0,0-.59.32,4.18,4.18,0,0,0-.23,1.33H580.3a5.78,5.78,0,0,1,.52-2.25,2.3,2.3,0,0,1,2.21-1.2c1.7,0,2.55.9,2.55,2.69v6.88A6.37,6.37,0,0,0,585.78,345Zm-2.17-2.26v-3.49a3.64,3.64,0,0,0-1.42,2.91c0,.78.21,1.17.61,1.17S583.36,343.11,583.61,342.71Z"/><path class="cls-1" d="M558.43,216.71l2.34,10h-2.19L557,219.57l-.91,2.46v4.65H554V211.63h2.09v5.66l2.06-5.66h2.14Z"/><path class="cls-1" d="M567.36,218.47v5.21c0,2.11-.89,3.16-2.68,3.16s-2.67-1.05-2.67-3.16v-5.21c0-2.11.89-3.16,2.67-3.16S567.36,216.36,567.36,218.47Zm-3.38-.32V224c0,.69.23,1,.7,1s.72-.34.72-1v-5.85c0-.69-.24-1-.7-1S564,217.46,564,218.15Z"/><path class="cls-1" d="M571.56,215.47l1.49,7.06,1.49-7.06h2.52v11.17h-1.8v-6.75l-1.76,6.75h-.9l-1.76-6.75v6.75h-1.76V215.47Z"/><path class="cls-1" d="M582.5,222.1h-1.6v4.58h-2V215.47h2v4.78h1.6v-4.78h2v11.21h-2Z"/><path class="cls-1" d="M591.84,226.68h-2a4.88,4.88,0,0,1-.13-.9,2,2,0,0,1-1.67,1.06c-1.15,0-1.72-1-1.72-2.84a4.06,4.06,0,0,1,1-2.8,12.72,12.72,0,0,1,2-1.56l.39-.25v-1.26a1.49,1.49,0,0,0-.15-.86.62.62,0,0,0-.46-.16.6.6,0,0,0-.59.32,4.12,4.12,0,0,0-.23,1.33h-1.89a5.89,5.89,0,0,1,.52-2.26,2.31,2.31,0,0,1,2.21-1.19c1.7,0,2.55.89,2.55,2.68v6.89A6.37,6.37,0,0,0,591.84,226.68Zm-2.16-2.26v-3.49a3.63,3.63,0,0,0-1.43,2.91c0,.78.21,1.17.61,1.17S589.42,224.82,589.68,224.42Z"/><path class="cls-1" d="M594.86,226.68v-9.45h-1.75v-1.76h5.48v1.76h-1.85v9.45Z"/><path class="cls-1" d="M605.13,226.68h-2a4.88,4.88,0,0,1-.13-.9,2,2,0,0,1-1.67,1.06c-1.15,0-1.72-1-1.72-2.84a4.06,4.06,0,0,1,.95-2.8,12.72,12.72,0,0,1,2.05-1.56l.39-.25v-1.26a1.49,1.49,0,0,0-.15-.86.62.62,0,0,0-.46-.16.59.59,0,0,0-.59.32,4.12,4.12,0,0,0-.23,1.33h-1.89a5.89,5.89,0,0,1,.52-2.26,2.31,2.31,0,0,1,2.21-1.19c1.7,0,2.55.89,2.55,2.68v6.89A6.37,6.37,0,0,0,605.13,226.68ZM603,224.42v-3.49a3.63,3.63,0,0,0-1.43,2.91c0,.78.21,1.17.61,1.17S602.71,224.82,603,224.42Z"/><path class="cls-1" d="M490.51,216l2.35,10h-2.19l-1.56-7.1-.9,2.45v4.65h-2.1V210.88h2.1v5.67l2.05-5.67h2.15Z"/><path class="cls-1" d="M499.45,217.72v5.21c0,2.11-.9,3.16-2.69,3.16s-2.66-1.05-2.66-3.16v-5.21c0-2.11.89-3.16,2.66-3.16S499.45,215.61,499.45,217.72Zm-3.39-.32v5.85c0,.69.23,1,.7,1s.72-.35.72-1V217.4c0-.69-.23-1-.7-1S496.06,216.71,496.06,217.4Z"/><path class="cls-1" d="M503.64,214.72l1.49,7.06,1.49-7.06h2.53v11.17h-1.81v-6.75l-1.76,6.75h-.9l-1.76-6.75v6.75h-1.76V214.72Z"/><path class="cls-1" d="M514.59,221.35H513v4.58h-2V214.72h2v4.78h1.61v-4.78h2v11.21h-2Z"/><path class="cls-1" d="M523.93,225.93h-2a4.74,4.74,0,0,1-.14-.9,2,2,0,0,1-1.67,1.06c-1.14,0-1.71-1-1.71-2.84a4.05,4.05,0,0,1,.94-2.8,13,13,0,0,1,2.06-1.56l.38-.25v-1.26a1.51,1.51,0,0,0-.15-.86.61.61,0,0,0-.46-.15.6.6,0,0,0-.59.31,4.26,4.26,0,0,0-.22,1.33h-1.9a6,6,0,0,1,.52-2.25,2.32,2.32,0,0,1,2.21-1.2c1.7,0,2.55.9,2.55,2.69v6.88A6,6,0,0,0,523.93,225.93Zm-2.17-2.25v-3.5a3.62,3.62,0,0,0-1.42,2.91c0,.78.2,1.17.61,1.17S521.5,224.07,521.76,223.68Z"/><path class="cls-1" d="M527,225.93v-9.45h-1.76v-1.76h5.48v1.76h-1.85v9.45Z"/><path class="cls-1" d="M537.22,225.93h-2a4.74,4.74,0,0,1-.14-.9,2,2,0,0,1-1.67,1.06c-1.14,0-1.71-1-1.71-2.84a4.05,4.05,0,0,1,.94-2.8,13,13,0,0,1,2.06-1.56l.38-.25v-1.26a1.51,1.51,0,0,0-.15-.86.61.61,0,0,0-.46-.15.6.6,0,0,0-.59.31,4.26,4.26,0,0,0-.22,1.33h-1.9a6,6,0,0,1,.52-2.25,2.32,2.32,0,0,1,2.21-1.2c1.7,0,2.55.9,2.55,2.69v6.88A6,6,0,0,0,537.22,225.93Zm-2.17-2.25v-3.5a3.62,3.62,0,0,0-1.42,2.91c0,.78.2,1.17.61,1.17S534.79,224.07,535.05,223.68Z"/><path class="cls-1" d="M172.11,303.31l2.35,10h-2.19l-1.56-7.11-.9,2.46v4.65h-2.1v-15h2.1v5.66l2.05-5.66H174Z"/><path class="cls-1" d="M181.05,305.07v5.21c0,2.1-.9,3.16-2.69,3.16s-2.66-1.06-2.66-3.16v-5.21c0-2.11.89-3.16,2.66-3.16S181.05,303,181.05,305.07Zm-3.39-.32v5.84c0,.7.23,1,.7,1s.72-.34.72-1v-5.84c0-.69-.23-1-.7-1S177.66,304.06,177.66,304.75Z"/><path class="cls-1" d="M185.24,302.06l1.49,7.07,1.49-7.07h2.53v11.17h-1.81v-6.74l-1.76,6.74h-.9l-1.76-6.74v6.74h-1.76V302.06Z"/><path class="cls-1" d="M196.19,308.7h-1.61v4.58h-2V302.06h2v4.79h1.61v-4.79h2v11.22h-2Z"/><path class="cls-1" d="M205.53,313.28h-2a4.74,4.74,0,0,1-.14-.9,2,2,0,0,1-1.67,1.06q-1.71,0-1.71-2.85a4,4,0,0,1,.94-2.79,13,13,0,0,1,2.06-1.56l.38-.25v-1.26a1.49,1.49,0,0,0-.15-.86.61.61,0,0,0-.46-.16.61.61,0,0,0-.59.32,4.2,4.2,0,0,0-.22,1.33H200a6,6,0,0,1,.52-2.26,2.33,2.33,0,0,1,2.21-1.19c1.7,0,2.55.89,2.55,2.68v6.88A6,6,0,0,0,205.53,313.28ZM203.36,311v-3.5a3.65,3.65,0,0,0-1.42,2.92c0,.78.2,1.17.61,1.17A1,1,0,0,0,203.36,311Z"/><path class="cls-1" d="M208.55,313.28v-9.46h-1.76v-1.76h5.48v1.76h-1.85v9.46Z"/><path class="cls-1" d="M218.82,313.28h-2a4.74,4.74,0,0,1-.14-.9,2,2,0,0,1-1.67,1.06q-1.71,0-1.71-2.85a4,4,0,0,1,.94-2.79,13,13,0,0,1,2.06-1.56l.38-.25v-1.26a1.49,1.49,0,0,0-.15-.86.61.61,0,0,0-.46-.16.61.61,0,0,0-.59.32,4.2,4.2,0,0,0-.22,1.33h-1.9a6,6,0,0,1,.52-2.26,2.33,2.33,0,0,1,2.21-1.19c1.7,0,2.55.89,2.55,2.68v6.88A6,6,0,0,0,218.82,313.28ZM216.65,311v-3.5a3.65,3.65,0,0,0-1.42,2.92c0,.78.2,1.17.61,1.17S216.39,311.41,216.65,311Z"/><path class="cls-1" d="M393.54,221.2l2.35,10H393.7l-1.56-7.1-.9,2.46v4.64h-2.1v-15h2.1v5.67l2.05-5.67h2.15Z"/><path class="cls-1" d="M402.48,223v5.21c0,2.11-.9,3.16-2.69,3.16s-2.66-1.05-2.66-3.16V223c0-2.11.89-3.16,2.66-3.16S402.48,220.85,402.48,223Zm-3.39-.32v5.85c0,.69.23,1,.7,1s.72-.35.72-1v-5.85c0-.69-.23-1-.7-1S399.09,222,399.09,222.64Z"/><path class="cls-1" d="M406.67,220l1.49,7.06,1.49-7.06h2.53v11.17h-1.81v-6.75l-1.76,6.75h-.9L406,224.38v6.75h-1.76V220Z"/><path class="cls-1" d="M417.62,226.59H416v4.58h-2V220h2v4.78h1.61V220h2v11.21h-2Z"/><path class="cls-1" d="M427,231.17h-2a4.74,4.74,0,0,1-.14-.9,2,2,0,0,1-1.67,1.06c-1.14,0-1.71-1-1.71-2.84a4.05,4.05,0,0,1,.94-2.8,13,13,0,0,1,2.06-1.56,3.37,3.37,0,0,0,.38-.24v-1.27a1.51,1.51,0,0,0-.15-.86.61.61,0,0,0-.46-.15.58.58,0,0,0-.58.31,3.9,3.9,0,0,0-.23,1.33h-1.9A6.17,6.17,0,0,1,422,221a2.32,2.32,0,0,1,2.21-1.2c1.7,0,2.55.9,2.55,2.69v6.88A6,6,0,0,0,427,231.17Zm-2.17-2.25v-3.5a3.62,3.62,0,0,0-1.42,2.91c0,.78.2,1.17.61,1.17A1,1,0,0,0,424.79,228.92Z"/><path class="cls-1" d="M430,231.17v-9.45h-1.76V220h5.48v1.76h-1.85v9.45Z"/><path class="cls-1" d="M440.25,231.17h-2a4.74,4.74,0,0,1-.14-.9,2,2,0,0,1-1.67,1.06c-1.14,0-1.71-1-1.71-2.84a4.05,4.05,0,0,1,.94-2.8,13.47,13.47,0,0,1,2.06-1.56,3.37,3.37,0,0,0,.38-.24v-1.27a1.51,1.51,0,0,0-.15-.86.61.61,0,0,0-.46-.15.58.58,0,0,0-.58.31,3.9,3.9,0,0,0-.23,1.33h-1.9a6,6,0,0,1,.52-2.25,2.32,2.32,0,0,1,2.21-1.2c1.7,0,2.55.9,2.55,2.69v6.88A6,6,0,0,0,440.25,231.17Zm-2.17-2.25v-3.5a3.62,3.62,0,0,0-1.42,2.91c0,.78.2,1.17.61,1.17S437.82,229.31,438.08,228.92Z"/><path class="cls-1" d="M380.53,534.15a8.51,8.51,0,0,1,.33,2.54,15.5,15.5,0,0,1-1.71,6.64l-7.52,15.81h9v2.78H367l9-19a15.08,15.08,0,0,0,1.71-6.24,4.45,4.45,0,0,0-1.06-3,3.46,3.46,0,0,0-2.77-1.24c-1.24,0-2.38.79-3.4,2.37l-2.16-2.21a7.68,7.68,0,0,1,2.2-2.16,5.75,5.75,0,0,1,2.91-1Q378.94,529.39,380.53,534.15Z"/><path class="cls-1" d="M392.7,529.55q7.4,0,7.4,16.45t-7.4,16.5q-7.4,0-7.4-16.5T392.7,529.55Zm0,2.78q-2.91,0-3.86,5.79a67.47,67.47,0,0,0,0,15.73q.95,5.79,3.86,5.79c1.55,0,2.66-1.11,3.31-3.31A39.94,39.94,0,0,0,397,546v-1.54q0-8.28-1.83-10.82A2.91,2.91,0,0,0,392.7,532.33Z"/><path class="cls-1" d="M418,534.15a8.51,8.51,0,0,1,.33,2.54,15.48,15.48,0,0,1-1.7,6.64l-7.52,15.81h9v2.78H404.52l9-19a15.08,15.08,0,0,0,1.71-6.24,4.5,4.5,0,0,0-1.06-3,3.46,3.46,0,0,0-2.77-1.24c-1.24,0-2.38.79-3.41,2.37l-2.16-2.21a7.71,7.71,0,0,1,2.21-2.16,5.68,5.68,0,0,1,2.9-1Q416.43,529.39,418,534.15Z"/><path class="cls-1" d="M526.41,571.3a5.28,5.28,0,0,1,.2,1.54,9.35,9.35,0,0,1-1,4L521,586.52h5.47v1.7h-8.27l5.46-11.57a9.28,9.28,0,0,0,1-3.8A2.71,2.71,0,0,0,524,571a2.09,2.09,0,0,0-1.68-.76,2.6,2.6,0,0,0-2.08,1.44L519,570.37a4.68,4.68,0,0,1,1.34-1.32,3.52,3.52,0,0,1,1.77-.61C524.32,568.41,525.77,569.36,526.41,571.3Z"/><path class="cls-1" d="M533.83,568.49q4.5,0,4.5,10t-4.5,10.05q-4.51,0-4.51-10.05T533.83,568.49Zm0,1.7c-1.18,0-2,1.18-2.36,3.52a41.2,41.2,0,0,0,0,9.59c.39,2.35,1.18,3.52,2.36,3.52q1.41,0,2-2a24.08,24.08,0,0,0,.6-6.3v-.94c0-3.36-.38-5.56-1.12-6.59A1.77,1.77,0,0,0,533.83,570.19Z"/><path class="cls-1" d="M541.45,578.52l1.19-9.82h6l-.63,1.69h-3.84l-.67,5.57a4.25,4.25,0,0,1,1-.15q3.15,0,4.26,3.47a9.57,9.57,0,0,1,.51,3.11,6.47,6.47,0,0,1-2.05,5.22,3.87,3.87,0,0,1-2.46.91,5.78,5.78,0,0,1-1.87-.28,5.14,5.14,0,0,1-1.49-.66l-.31-.2.94-1.54.45.2a5.41,5.41,0,0,0,2.13.63,2.51,2.51,0,0,0,2.25-1.54,6.13,6.13,0,0,0,.61-2.84,4.8,4.8,0,0,0-1.62-3.95,3,3,0,0,0-2-.66A4.44,4.44,0,0,0,541.45,578.52Z"/><path class="cls-1" d="M520.07,531.64a8.49,8.49,0,0,1,.33,2.53,15.63,15.63,0,0,1-1.7,6.65l-7.53,15.81h9v2.78H506.58l8.95-19a15.08,15.08,0,0,0,1.71-6.24,4.45,4.45,0,0,0-1.06-3,3.46,3.46,0,0,0-2.76-1.24c-1.25,0-2.39.79-3.41,2.37l-2.16-2.21a7.68,7.68,0,0,1,2.2-2.16,5.75,5.75,0,0,1,2.91-1Q518.48,526.88,520.07,531.64Z"/><path class="cls-1" d="M532.24,527q7.39,0,7.4,16.46t-7.4,16.5q-7.4,0-7.39-16.5T532.24,527Zm0,2.78c-1.94,0-3.22,1.93-3.86,5.79a67.47,67.47,0,0,0,0,15.73c.64,3.86,1.92,5.79,3.86,5.79,1.55,0,2.66-1.11,3.31-3.31a39.94,39.94,0,0,0,1-10.35v-1.54q0-8.28-1.82-10.82A2.94,2.94,0,0,0,532.24,529.82Z"/><path class="cls-1" d="M554.66,527.58l-6.24,14.22a7.15,7.15,0,0,1,3.66-1.13q3.57,0,5,5.19a19.59,19.59,0,0,1,.66,4.62q0,5.73-2.66,8.19a5.42,5.42,0,0,1-3.74,1.41q-4.86.07-6.61-4.86a14.21,14.21,0,0,1-.79-4.49,1.58,1.58,0,0,0,.08-.59,40.94,40.94,0,0,1,3.91-14.75l3.91-8.77Zm-3.32,29.55c2.4-.14,3.55-2.49,3.47-7q-.12-6.54-3.72-6.63-3.89-.08-3.89,6.72,0,7,3.81,7A.62.62,0,0,1,551.34,557.13Z"/><path class="cls-1" d="M519.89,459.94a8.4,8.4,0,0,1,.33,2.53,15.59,15.59,0,0,1-1.7,6.64L511,484.92h9v2.78H506.4l9-19a15.08,15.08,0,0,0,1.71-6.23,4.47,4.47,0,0,0-1.06-3,3.46,3.46,0,0,0-2.76-1.24c-1.25,0-2.39.79-3.41,2.37l-2.16-2.21a7.81,7.81,0,0,1,2.2-2.16,5.73,5.73,0,0,1,2.91-1Q518.3,455.16,519.89,459.94Z"/><path class="cls-1" d="M532.06,455.33q7.4,0,7.4,16.46t-7.4,16.5q-7.39,0-7.39-16.5T532.06,455.33Zm0,2.78c-1.94,0-3.22,1.93-3.86,5.79a67.47,67.47,0,0,0,0,15.73c.64,3.86,1.92,5.79,3.86,5.79,1.55,0,2.66-1.1,3.31-3.31a39.85,39.85,0,0,0,1-10.34v-1.54c0-5.53-.61-9.13-1.82-10.83A2.94,2.94,0,0,0,532.06,458.11Z"/><path class="cls-1" d="M553.45,458.49h-9.54L545,455.7h12.63l-10.3,33-3-1Z"/><path class="cls-1" d="M521.49,401a6.6,6.6,0,0,1,.33,2.23,12.28,12.28,0,0,1-1.71,5.83l-7.52,13.9h9v2.44H508l9-16.69a12,12,0,0,0,1.71-5.47,3.62,3.62,0,0,0-1.06-2.63,3.68,3.68,0,0,0-2.76-1.1,4.31,4.31,0,0,0-3.41,2.08l-2.16-1.93a7.26,7.26,0,0,1,2.2-1.9,6.36,6.36,0,0,1,2.91-.88C518.06,396.8,520.43,398.18,521.49,401Z"/><path class="cls-1" d="M533.66,396.93q7.41,0,7.4,14.46t-7.4,14.5q-7.39,0-7.39-14.5T533.66,396.93Zm0,2.44c-1.94,0-3.22,1.7-3.86,5.09a52.13,52.13,0,0,0,0,13.82c.64,3.39,1.92,5.09,3.86,5.09,1.55,0,2.66-1,3.31-2.91a31,31,0,0,0,1-9.09V410q0-7.29-1.83-9.51A3,3,0,0,0,533.66,399.37Z"/><path class="cls-1" d="M553.2,396.56q6.43,0,6.52,6.83a7.88,7.88,0,0,1-.62,3.4,5.7,5.7,0,0,1-2.19,2.48l-.51.33.49.36q3,2.13,2.91,7.27t-2.57,7.3a6,6,0,0,1-4.08,1.28q-7,0-7.14-8.58a10,10,0,0,1,.78-4,5.62,5.62,0,0,1,2.54-3.21l.75-.37-.67-.47a6.51,6.51,0,0,1-2.53-5.66,7.59,7.59,0,0,1,1.5-4.79A5.86,5.86,0,0,1,553.2,396.56ZM549,417.23q.12,6.16,4,6.14,2.78,0,3.45-3.18a12.68,12.68,0,0,0,.37-3c0-4.14-1.25-6.21-3.82-6.21a3.42,3.42,0,0,0-3.33,2.26A9.74,9.74,0,0,0,549,417.23Zm4.28-8.84a3.05,3.05,0,0,0,2.86-1.68,6.18,6.18,0,0,0,.67-3.17q-.07-4.35-3.53-4.35-3.24,0-3.37,4.27Q549.79,408.4,553.28,408.39Z"/><path class="cls-1" d="M380.53,478.38a8.44,8.44,0,0,1,.33,2.53,15.47,15.47,0,0,1-1.71,6.64l-7.52,15.82h9v2.78H367l9-19a15,15,0,0,0,1.71-6.23,4.45,4.45,0,0,0-1.06-3,3.47,3.47,0,0,0-2.77-1.25c-1.24,0-2.38.79-3.4,2.37l-2.16-2.2a7.68,7.68,0,0,1,2.2-2.16,5.75,5.75,0,0,1,2.91-1Q378.94,473.62,380.53,478.38Z"/><path class="cls-1" d="M392.7,473.77q7.4,0,7.4,16.46t-7.4,16.5q-7.4,0-7.4-16.5T392.7,473.77Zm0,2.79q-2.91,0-3.86,5.78a67.55,67.55,0,0,0,0,15.74c.63,3.86,1.92,5.78,3.86,5.78,1.55,0,2.66-1.1,3.31-3.31a39.8,39.8,0,0,0,1-10.34v-1.54q0-8.28-1.83-10.82A2.91,2.91,0,0,0,392.7,476.56Z"/><path class="cls-1" d="M406.67,489.07l.83-2.33q5.19,0,6.15-2.28a7.83,7.83,0,0,0,.5-3,6.87,6.87,0,0,0-.86-3.8,2.85,2.85,0,0,0-2.55-1.29,3,3,0,0,0-2.12.74,6.05,6.05,0,0,0-1.21,1.92l-2.36-2.2a7.21,7.21,0,0,1,2.34-2.54,6.76,6.76,0,0,1,3.35-.7q4.49,0,5.86,3.9a11.63,11.63,0,0,1,.62,3.87,6.56,6.56,0,0,1-3.65,6.57,6.28,6.28,0,0,1,3.4,3.78,16.23,16.23,0,0,1,.67,5.23q0,9.65-6.57,9.85a6.78,6.78,0,0,1-6.27-3.32l2.46-2.2a3.58,3.58,0,0,0,3.75,2.49q2.5-.07,3.43-3.53a10.68,10.68,0,0,0,.37-3,19.31,19.31,0,0,0-.33-3.74,6.08,6.08,0,0,0-2-3.15,6.92,6.92,0,0,0-4.59-1.25Z"/><path class="cls-1" d="M380.34,434.62a6.53,6.53,0,0,1,.33,2.22,12.44,12.44,0,0,1-1.7,5.84l-7.53,13.89h9V459H366.85l8.95-16.69a12,12,0,0,0,1.71-5.48,3.64,3.64,0,0,0-1.06-2.63,3.68,3.68,0,0,0-2.76-1.1,4.29,4.29,0,0,0-3.41,2.09l-2.16-1.94a7.4,7.4,0,0,1,2.2-1.9,6.23,6.23,0,0,1,2.91-.87Q378.75,430.42,380.34,434.62Z"/><path class="cls-1" d="M392.52,430.57q7.39,0,7.39,14.46t-7.39,14.5q-7.41,0-7.4-14.5T392.52,430.57Zm0,2.45c-1.95,0-3.23,1.69-3.87,5.08a52.13,52.13,0,0,0,0,13.82c.64,3.39,1.92,5.09,3.87,5.09q2.33,0,3.3-2.91a30.9,30.9,0,0,0,1-9.09v-1.35q0-7.28-1.83-9.51A3.06,3.06,0,0,0,392.52,433Z"/><path class="cls-1" d="M417.82,434.62a6.28,6.28,0,0,1,.34,2.22,12.35,12.35,0,0,1-1.71,5.84l-7.52,13.89h9V459H404.33l9-16.69a12,12,0,0,0,1.71-5.48,3.64,3.64,0,0,0-1.06-2.63,3.69,3.69,0,0,0-2.77-1.1,4.29,4.29,0,0,0-3.4,2.09l-2.16-1.94a7.4,7.4,0,0,1,2.2-1.9,6.23,6.23,0,0,1,2.91-.87Q416.24,430.42,417.82,434.62Z"/><path class="cls-1" d="M763.94,330a8.44,8.44,0,0,1,.33,2.53,15.59,15.59,0,0,1-1.7,6.64L755,355h9v2.78H750.45l8.95-19a15,15,0,0,0,1.71-6.23,4.45,4.45,0,0,0-1.06-3,3.45,3.45,0,0,0-2.76-1.25c-1.25,0-2.38.79-3.41,2.37l-2.16-2.2a7.68,7.68,0,0,1,2.2-2.16,5.75,5.75,0,0,1,2.91-1C760.52,325.25,762.88,326.82,763.94,330Z"/><path class="cls-1" d="M775.45,325.77v32h-2.91v-29h-4.15l1.08-3Z"/><path class="cls-1" d="M791.87,324.31v21.74h2.62l-.67,2.78h-2v8.86h-3v-8.86h-7.43l-1.58-2.66,9.43-20.32Zm-2.5,6.44-6.23,15.3h5.73V335.69Z"/><path class="cls-1" d="M522.7,275.2l6.93,29.46h-6.47l-4.6-21-2.66,7.26v13.73h-6.2V260.21h6.2v16.73L522,260.21h6.33Z"/><path class="cls-1" d="M549.09,280.4v15.4q0,9.33-7.93,9.33t-7.87-9.33V280.4q0-9.33,7.87-9.33T549.09,280.4Zm-10-.93v17.26c0,2,.69,3.07,2.07,3.07s2.13-1,2.13-3.07V279.47c0-2-.69-3.07-2.07-3.07S539.09,277.43,539.09,279.47Z"/><path class="cls-1" d="M554,271.54h5.67l.13,3.13q3.07-3.6,5.47-3.6a3.85,3.85,0,0,1,3.53,2.07c.58,1,.87,2.89.87,5.73v18.46q0,4.34-.93,5.87a3.86,3.86,0,0,1-3.47,1.93q-2.4,0-5.47-3.6V316H554Zm5.8,6.2v20.73a4.7,4.7,0,0,0,2.6,1.33c1,0,1.47-.82,1.47-2.47V278.87c0-1.64-.49-2.47-1.47-2.47A4.66,4.66,0,0,0,559.75,277.74Z"/><path class="cls-1" d="M590.21,304.66h-5.33l-.47-2.86q-3.12,3.33-5.39,3.33a3.85,3.85,0,0,1-3.94-2.73,15.13,15.13,0,0,1-.53-4.87v-26h5.8v25.79c0,1.65.49,2.47,1.46,2.47a4.64,4.64,0,0,0,2.6-1.33V271.54h5.8Z"/><path class="cls-1" d="M600.28,304.66v3.47h-5.87v-9.27h1.27a2.18,2.18,0,0,0,2.33-1.8,16.69,16.69,0,0,0,.2-3.33V271.54h14.06v27.32h2.8v9.27h-5.86v-3.47Zm6.2-5.8V277.34H604v16.39c0,2.49,0,4.07-.13,4.74a1.34,1.34,0,0,1-.07.39Z"/><path class="cls-1" d="M634.67,280.4v15.4q0,9.33-7.93,9.33t-7.87-9.33V280.4q0-9.33,7.87-9.33T634.67,280.4Zm-10-.93v17.26c0,2,.69,3.07,2.07,3.07s2.13-1,2.13-3.07V279.47c0-2-.69-3.07-2.07-3.07S624.67,277.43,624.67,279.47Z"/><path class="cls-1" d="M639.53,271.54h5.67l.13,3.13q3.07-3.6,5.47-3.6a3.85,3.85,0,0,1,3.53,2.07c.58,1,.87,2.89.87,5.73v18.46q0,4.34-.93,5.87a3.86,3.86,0,0,1-3.47,1.93q-2.4,0-5.47-3.6V316h-5.8Zm5.8,6.2v20.73a4.7,4.7,0,0,0,2.6,1.33c1,0,1.47-.82,1.47-2.47V278.87c0-1.64-.49-2.47-1.47-2.47A4.66,4.66,0,0,0,645.33,277.74Z"/></g></svg>