<svg id="Слой_5" data-name="Слой 5" xmlns="http://www.w3.org/2000/svg" viewBox="0 0 1134.43 708.66"><defs><style>.cls-1{fill:#fff;}</style></defs><title>Монтажная область 1</title><path class="cls-1" d="M281.05,427.47v54.35H276V432.6h-7.26l1.88-5.13Z"/><path class="cls-1" d="M289.55,454.76,293,427.4h17.1l-1.8,4.65H297.33l-2,15.61a12.72,12.72,0,0,1,2.83-.44q9,0,12.22,9.59a27.17,27.17,0,0,1,1.42,8.79q0,9.73-5.88,14.52a10.76,10.76,0,0,1-7,2.59,18.49,18.49,0,0,1-5.32-.79,16.15,16.15,0,0,1-4.35-1.84l-.85-.59,2.69-4.33,1.27.6a15.55,15.55,0,0,0,6.1,1.78,6.75,6.75,0,0,0,6.16-3.83,16.81,16.81,0,0,0,2-8.38q0-7.4-4.64-11.05a9,9,0,0,0-5.66-1.83,9.73,9.73,0,0,0-3.39.49A22.57,22.57,0,0,0,289.55,454.76Z"/><path class="cls-1" d="M329.21,427.47v54.35h-5.06V432.6h-7.26l1.88-5.13Z"/><path class="cls-1" d="M648.49,427.47v54.35h-5.07V432.6h-7.26l1.88-5.13Z"/><path class="cls-1" d="M657,454.76l3.4-27.36h17.1l-1.8,4.65H664.77l-2,15.61a12.72,12.72,0,0,1,2.83-.44q9,0,12.22,9.59a27.17,27.17,0,0,1,1.42,8.79q0,9.73-5.88,14.52a10.76,10.76,0,0,1-7,2.59,18.49,18.49,0,0,1-5.32-.79,16.15,16.15,0,0,1-4.35-1.84l-.85-.59,2.69-4.33,1.27.6a15.55,15.55,0,0,0,6.1,1.78,6.75,6.75,0,0,0,6.16-3.83,16.81,16.81,0,0,0,2.05-8.38q0-7.4-4.64-11.05a9,9,0,0,0-5.66-1.83,9.73,9.73,0,0,0-3.39.49A22.1,22.1,0,0,0,657,454.76Z"/><path class="cls-1" d="M707.81,434.67a13.67,13.67,0,0,1,.6,4.31,26,26,0,0,1-3,11.27L692.3,477.16H708v4.66H684.38l15.55-32.25q3-6.18,3-10.59a7.38,7.38,0,0,0-1.77-5,6.15,6.15,0,0,0-4.89-2.17c-2.17,0-4.16,1.33-6,4l-3.79-3.72a13.06,13.06,0,0,1,4.21-3.86,10,10,0,0,1,4.71-1.51Q705.12,426.68,707.81,434.67Z"/><path class="cls-1" d="M838.13,427.47v54.35h-5.07V432.6H825.8l1.88-5.13Z"/><path class="cls-1" d="M846.63,454.76,850,427.4h17.11l-1.81,4.65H854.41l-2,15.61a12.8,12.8,0,0,1,2.83-.44q9,0,12.23,9.59a27.43,27.43,0,0,1,1.41,8.79q0,9.73-5.88,14.52a10.76,10.76,0,0,1-7,2.59,18.42,18.42,0,0,1-5.31-.79,16.25,16.25,0,0,1-4.36-1.84l-.85-.59,2.69-4.33,1.28.6a15.55,15.55,0,0,0,6.09,1.78,6.74,6.74,0,0,0,6.16-3.83,16.82,16.82,0,0,0,2.06-8.38q0-7.4-4.64-11.05a9,9,0,0,0-5.67-1.83,9.67,9.67,0,0,0-3.38.49A22.11,22.11,0,0,0,846.63,454.76Z"/><path class="cls-1" d="M877.66,452.8l1.45-4q9,0,10.7-3.87a12.82,12.82,0,0,0,.92-5.11q0-8.7-6-8.7a5,5,0,0,0-3.53,1.09,10.9,10.9,0,0,0-2.28,3.52L874.82,432a11.34,11.34,0,0,1,4.31-4.46,12.87,12.87,0,0,1,5.65-1.08q7.79,0,10.2,6.62a19.14,19.14,0,0,1,1.09,6.59,13.32,13.32,0,0,1-1.38,6.59,13.56,13.56,0,0,1-5,4.58,11,11,0,0,1,5.91,6.45,26.23,26.23,0,0,1,1.21,8.86,24.46,24.46,0,0,1-2.55,11.73q-2.73,5-8.93,5a12.35,12.35,0,0,1-10.94-5.65l4.28-3.75a6.42,6.42,0,0,0,6.52,4.23A4.82,4.82,0,0,0,889,476a10.27,10.27,0,0,0,2.16-4.15,19.65,19.65,0,0,0,.67-5.22,32.07,32.07,0,0,0-.7-6.72,9,9,0,0,0-3.23-4.93c-1.91-1.56-4.59-2.29-8-2.17Z"/><path class="cls-1" d="M828,238.78v54.35H822.9V243.92h-7.26l1.88-5.14Z"/><path class="cls-1" d="M836.47,266.07l3.4-27.36H857l-1.8,4.65H844.25l-2,15.61a13.34,13.34,0,0,1,2.83-.44q9,0,12.22,9.59a27.21,27.21,0,0,1,1.42,8.79q0,9.73-5.88,14.53a10.8,10.8,0,0,1-7,2.58,18.54,18.54,0,0,1-5.32-.79,15.84,15.84,0,0,1-4.35-1.84l-.85-.59,2.69-4.32,1.27.59a15.59,15.59,0,0,0,6.1,1.78,6.75,6.75,0,0,0,6.16-3.83,16.78,16.78,0,0,0,2.05-8.38q0-7.39-4.64-11.05a9,9,0,0,0-5.66-1.82,9.76,9.76,0,0,0-3.39.48A22.57,22.57,0,0,0,836.47,266.07Z"/><path class="cls-1" d="M884.28,236.3v37h4.57l-1.13,4.65h-3.44V293h-5.21V277.93h-13l-2.77-4.51,16.47-34.5Zm-4.36,11-10.87,26h10V255.63Z"/><path class="cls-1" d="M648.49,238.78v54.35h-5.07V243.92h-7.26l1.88-5.14Z"/><path class="cls-1" d="M657,266.07l3.4-27.36h17.1l-1.8,4.65H664.77l-2,15.61a13.34,13.34,0,0,1,2.83-.44q9,0,12.22,9.59a27.21,27.21,0,0,1,1.42,8.79q0,9.73-5.88,14.53a10.8,10.8,0,0,1-7,2.58,18.49,18.49,0,0,1-5.32-.79,15.84,15.84,0,0,1-4.35-1.84l-.85-.59,2.69-4.32,1.27.59a15.55,15.55,0,0,0,6.1,1.78A6.75,6.75,0,0,0,672,285a16.78,16.78,0,0,0,2.05-8.38q0-7.39-4.64-11.05a9,9,0,0,0-5.66-1.82,9.76,9.76,0,0,0-3.39.48A22.1,22.1,0,0,0,657,266.07Z"/><path class="cls-1" d="M685.5,266.07l3.4-27.36H706l-1.81,4.65H693.28l-2,15.61a13.43,13.43,0,0,1,2.83-.44q9,0,12.22,9.59a27.21,27.21,0,0,1,1.42,8.79q0,9.73-5.88,14.53a10.8,10.8,0,0,1-7,2.58,18.54,18.54,0,0,1-5.32-.79,16,16,0,0,1-4.35-1.84l-.85-.59,2.69-4.32,1.28.59a15.55,15.55,0,0,0,6.09,1.78,6.74,6.74,0,0,0,6.16-3.83,16.78,16.78,0,0,0,2.05-8.38q0-7.39-4.63-11.05a9.1,9.1,0,0,0-5.67-1.82,9.66,9.66,0,0,0-3.38.48A22.11,22.11,0,0,0,685.5,266.07Z"/><path class="cls-1" d="M407.39,232.31v54.35h-5.07V237.45h-7.26l1.88-5.14Z"/><path class="cls-1" d="M415.89,259.6l3.4-27.36H436.4l-1.81,4.65H423.67l-2,15.62a12.94,12.94,0,0,1,2.83-.45q9,0,12.22,9.59a27.21,27.21,0,0,1,1.42,8.79q0,9.74-5.88,14.53a10.8,10.8,0,0,1-7,2.58,18.42,18.42,0,0,1-5.31-.79,15.93,15.93,0,0,1-4.36-1.84l-.85-.59,2.69-4.32,1.28.59a15.55,15.55,0,0,0,6.09,1.78,6.74,6.74,0,0,0,6.16-3.83,16.79,16.79,0,0,0,2.06-8.38q0-7.4-4.64-11a9,9,0,0,0-5.67-1.83,9.66,9.66,0,0,0-3.38.48A22.11,22.11,0,0,0,415.89,259.6Z"/><path class="cls-1" d="M461.61,232.57l-10.84,24.14a12.8,12.8,0,0,1,6.37-1.9,7,7,0,0,1,5.41,2.56,15.94,15.94,0,0,1,3.31,6.3,28.09,28.09,0,0,1,1.14,7.79q0,9.85-4.61,14a9.48,9.48,0,0,1-6.55,2.38q-8.61,0-11.51-8.24a22.84,22.84,0,0,1-1.38-7.65l.14-1a43.14,43.14,0,0,1,2.13-12.75,98,98,0,0,1,4.67-12.31L456.73,231Zm-5.77,50.19c2.24,0,3.84-1.21,4.78-3.65a22.88,22.88,0,0,0,1.31-8.34q0-11.29-6.51-11.3a5.39,5.39,0,0,0-5.28,3.41,19.14,19.14,0,0,0-1.56,8q0,12,6.69,12Z"/><path class="cls-1" d="M169.51,231.3h2.9a3.68,3.68,0,0,1,2.65.95,3.46,3.46,0,0,1,1,2.58v.7h-2.18v-.7a1.27,1.27,0,0,0-1.45-1.41h-2.9a1.26,1.26,0,0,0-1.45,1.41v42.35a1.26,1.26,0,0,0,1.45,1.41h2.9a1.27,1.27,0,0,0,1.45-1.41v-.71H176v.71a3.42,3.42,0,0,1-1,2.57,3.64,3.64,0,0,1-2.65,1h-2.9a3.61,3.61,0,0,1-2.65-1,3.42,3.42,0,0,1-1-2.57V234.83a3.46,3.46,0,0,1,1-2.58A3.64,3.64,0,0,1,169.51,231.3Z"/><path class="cls-1" d="M178.86,283.53l20.24-51.18H204l-20.32,51.18Z"/><path class="cls-1" d="M208.89,278.59h6.53a1.26,1.26,0,0,0,1.45-1.41v-3.53h-4.35a3.62,3.62,0,0,1-2.65-1,3.42,3.42,0,0,1-1-2.57V231.3h2.18v38.82a1.26,1.26,0,0,0,1.45,1.41h4.35V231.3h2.18v45.88a3.42,3.42,0,0,1-1,2.57,3.62,3.62,0,0,1-2.65,1h-6.53Z"/></svg>